<?xml version="1.0" standalone="no"?>
<!DOCTYPE svg PUBLIC "-//W3C//DTD SVG 20010904//EN"
 "http://www.w3.org/TR/2001/REC-SVG-20010904/DTD/svg10.dtd">
<svg version="1.0" xmlns="http://www.w3.org/2000/svg"
 width="700.000000pt" height="700.000000pt" viewBox="0 0 700.000000 700.000000"
 preserveAspectRatio="xMidYMid meet">
<metadata>
Created by potrace 1.14, written by Peter Selinger 2001-2017
</metadata>
<g transform="translate(0.000000,700.000000) scale(0.100000,-0.100000)"
fill="#000000" stroke="none">
<path d="M3360 5014 c-45 -20 -96 -69 -123 -119 -22 -39 -22 -49 -25 -572 l-3
-532 -532 -3 c-523 -3 -533 -3 -572 -25 -88 -47 -135 -123 -135 -218 0 -97 47
-171 135 -211 l50 -24 527 0 527 0 3 -532 c3 -582 1 -563 63 -636 83 -98 246
-106 339 -16 75 73 71 37 74 641 l3 542 542 3 c604 3 568 -1 641 74 90 93 82
256 -16 339 -73 62 -54 60 -635 63 l-533 3 0 527 0 527 -24 50 c-25 54 -71
100 -123 122 -43 17 -139 16 -183 -3z"/>
</g>
</svg>
